[2026-02-09 19:45:21] INFO: ----------- Loading Dataset -----------
[2026-02-09 19:45:24] INFO: Computing Normalization
[2026-02-09 19:45:40] INFO: Class Name Order Data Loading (Class Weight): ['left_cut_in' 'no_hazard' 'object_coming_out' 'object_crossing'
 'object_emerging' 'object_hazard_light_on' 'object_meeting'
 'object_pulling_up' 'object_reversing' 'object_stopping' 'object_turning'
 'pedestrian_near_parked_vehicles' 'red_crossing_traffic_light'
 'right_cut_in' 'road_works']
[2026-02-09 19:45:40] INFO: Indice Example (Class Weight): [3 3 3 3 3 3 3 3 3 3]
[2026-02-09 19:45:40] INFO: Class Name Order (Data Loading ): ['left_cut_in' 'no_hazard' 'object_coming_out' 'object_crossing'
 'object_emerging' 'object_hazard_light_on' 'object_meeting'
 'object_pulling_up' 'object_reversing' 'object_stopping' 'object_turning'
 'pedestrian_near_parked_vehicles' 'red_crossing_traffic_light'
 'right_cut_in' 'road_works']
[2026-02-09 19:45:40] INFO: Encoded Example (Data Loading ): 0
[2026-02-09 19:45:40] INFO: cfg.loss.class_weights tensor([1.0518, 0.3961, 2.3720, 1.4440, 1.2145, 0.8260, 1.9199, 1.6666, 1.9887,
        0.9238, 0.6677, 1.0338, 1.2653, 0.6662, 1.0943])
[2026-02-09 19:45:40] INFO: cfg.data.sampler <torch.utils.data.sampler.WeightedRandomSampler object at 0x7f68873d5e50>
[2026-02-09 19:45:40] INFO: Train batches: 1587
[2026-02-09 19:45:40] INFO: 
----------- Train Statistics -----------
[2026-02-09 19:45:40] INFO: Train videos total samples: 928
[2026-02-09 19:45:40] INFO: Train videos samples per class:

[2026-02-09 19:45:40] INFO: object_crossing                  :       54   5.82%
[2026-02-09 19:45:40] INFO: red_crossing_traffic_light       :       35   3.77%
[2026-02-09 19:45:40] INFO: object_emerging                  :       72   7.76%
[2026-02-09 19:45:40] INFO: object_meeting                   :       44   4.74%
[2026-02-09 19:45:40] INFO: right_cut_in                     :       91   9.81%
[2026-02-09 19:45:40] INFO: left_cut_in                      :       49   5.28%
[2026-02-09 19:45:40] INFO: object_turning                   :       65   7.00%
[2026-02-09 19:45:40] INFO: object_stopping                  :       57   6.14%
[2026-02-09 19:45:40] INFO: object_reversing                 :       20   2.16%
[2026-02-09 19:45:40] INFO: object_hazard_light_on           :       51   5.50%
[2026-02-09 19:45:40] INFO: pedestrian_near_parked_vehicles  :       58   6.25%
[2026-02-09 19:45:40] INFO: object_coming_out                :       21   2.26%
[2026-02-09 19:45:40] INFO: object_pulling_up                :       31   3.34%
[2026-02-09 19:45:40] INFO: road_works                       :       30   3.23%
[2026-02-09 19:45:40] INFO: no_hazard                        :      250   26.94%
[2026-02-09 19:45:40] INFO: Train sequences total samples: 50772
[2026-02-09 19:45:40] INFO: Train sequence per class:

[2026-02-09 19:45:40] INFO: object_crossing                  :     2344   4.62%
[2026-02-09 19:45:40] INFO: red_crossing_traffic_light       :     2675   5.27%
[2026-02-09 19:45:40] INFO: object_emerging                  :     2787   5.49%
[2026-02-09 19:45:40] INFO: object_meeting                   :     1763   3.47%
[2026-02-09 19:45:40] INFO: right_cut_in                     :     5081   10.01%
[2026-02-09 19:45:40] INFO: left_cut_in                      :     3218   6.34%
[2026-02-09 19:45:40] INFO: object_turning                   :     5069   9.98%
[2026-02-09 19:45:40] INFO: object_stopping                  :     3664   7.22%
[2026-02-09 19:45:40] INFO: object_reversing                 :     1702   3.35%
[2026-02-09 19:45:40] INFO: object_hazard_light_on           :     4098   8.07%
[2026-02-09 19:45:40] INFO: pedestrian_near_parked_vehicles  :     3274   6.45%
[2026-02-09 19:45:40] INFO: object_coming_out                :     1427   2.81%
[2026-02-09 19:45:40] INFO: object_pulling_up                :     2031   4.00%
[2026-02-09 19:45:40] INFO: road_works                       :     3093   6.09%
[2026-02-09 19:45:40] INFO: no_hazard                        :     8546   16.83%
[2026-02-09 19:45:42] INFO: Loading Normalization
[2026-02-09 19:45:46] INFO: Test batches: 385
[2026-02-09 19:45:46] INFO: 
----------- Test Statistics -----------
[2026-02-09 19:45:46] INFO: Test videos total samples: 226
[2026-02-09 19:45:46] INFO: Test videos samples per class:

[2026-02-09 19:45:46] INFO: object_crossing                  :       14     6.19%
[2026-02-09 19:45:46] INFO: red_crossing_traffic_light       :        9     3.98%
[2026-02-09 19:45:46] INFO: object_emerging                  :       18     7.96%
[2026-02-09 19:45:46] INFO: object_meeting                   :       12     5.31%
[2026-02-09 19:45:46] INFO: right_cut_in                     :       23    10.18%
[2026-02-09 19:45:46] INFO: left_cut_in                      :       13     5.75%
[2026-02-09 19:45:46] INFO: object_turning                   :       17     7.52%
[2026-02-09 19:45:46] INFO: object_stopping                  :       15     6.64%
[2026-02-09 19:45:46] INFO: object_reversing                 :        5     2.21%
[2026-02-09 19:45:46] INFO: object_hazard_light_on           :       13     5.75%
[2026-02-09 19:45:46] INFO: pedestrian_near_parked_vehicles  :       15     6.64%
[2026-02-09 19:45:46] INFO: object_coming_out                :        6     2.65%
[2026-02-09 19:45:46] INFO: object_pulling_up                :        8     3.54%
[2026-02-09 19:45:46] INFO: road_works                       :        8     3.54%
[2026-02-09 19:45:46] INFO: no_hazard                        :       50    22.12%
[2026-02-09 19:45:46] INFO: Test sequences total samples: 12301
[2026-02-09 19:45:46] INFO: Test sequence per class:

[2026-02-09 19:45:46] INFO: object_crossing                  :      527   4.28%
[2026-02-09 19:45:46] INFO: red_crossing_traffic_light       :      705   5.73%
[2026-02-09 19:45:46] INFO: object_emerging                  :      619   5.03%
[2026-02-09 19:45:46] INFO: object_meeting                   :      419   3.41%
[2026-02-09 19:45:46] INFO: right_cut_in                     :     1545   12.56%
[2026-02-09 19:45:46] INFO: left_cut_in                      :      852   6.93%
[2026-02-09 19:45:46] INFO: object_stopping                  :      533   4.33%
[2026-02-09 19:45:46] INFO: object_reversing                 :      325   2.64%
[2026-02-09 19:45:46] INFO: pedestrian_near_parked_vehicles  :      599   4.87%
[2026-02-09 19:45:46] INFO: object_hazard_light_on           :     1199   9.75%
[2026-02-09 19:45:46] INFO: object_turning                   :     1529   12.43%
[2026-02-09 19:45:46] INFO: road_works                       :      727   5.91%
[2026-02-09 19:45:46] INFO: object_coming_out                :      384   3.12%
[2026-02-09 19:45:46] INFO: object_pulling_up                :      554   4.50%
[2026-02-09 19:45:46] INFO: no_hazard                        :     1784   14.50%
[2026-02-09 19:45:46] INFO: Dataset initialization completed successfully
[2026-02-09 19:45:54] INFO: ----------- Getting Loss Function -----------
[2026-02-09 19:45:54] INFO: Loss Function: FocalLoss
[2026-02-09 19:45:54] INFO: Class weights: tensor([1.0518, 0.3961, 2.3720, 1.4440, 1.2145, 0.8260, 1.9199, 1.6666, 1.9887,
        0.9238, 0.6677, 1.0338, 1.2653, 0.6662, 1.0943], device='cuda:0')
